# xmcd
# 
# Track frame offsets:
#     150
#     27071
#     43486
#     60964
#     85815
#     108600
#     122735
#     141336
#     155490
#     176625
#     194231
#     214216
# 
# Disc length: 3122
# 
# Revision: 1
# Processed by: cddbd v1.5.2PL0 Copyright (c) Steve Scherf et al.
# Submitted via: fre:ac v1.1beta2
# 
DISCID=b30c300c
DTITLE=Magnus Lindgren - Stockholm Underground
DYEAR=2017
DGENRE=Jazz
TTITLE0=Fluting
TTITLE1=Penny Blue
TTITLE2=Chain Of Fools
TTITLE3=Winter Wisdom
TTITLE4=A Whiter Shade Of Pale
TTITLE5=Good Stuff
TTITLE6=Message From Kaknäs
TTITLE7=Theme For Laura
TTITLE8=Brutal Truth
TTITLE9=Mr. Mann
TTITLE10=SuperBoogie
TTITLE11=Stockholm Underground
EXTD=
EXTT0=
EXTT1=
EXTT2=
EXTT3=
EXTT4=
EXTT5=
EXTT6=
EXTT7=
EXTT8=
EXTT9=
EXTT10=
EXTT11=
PLAYORDER=
